<?xml version="1.0" standalone="no"?>
<!DOCTYPE svg PUBLIC "-//W3C//DTD SVG 20010904//EN"
 "http://www.w3.org/TR/2001/REC-SVG-20010904/DTD/svg10.dtd">
<svg version="1.0" xmlns="http://www.w3.org/2000/svg"
 viewBox="0 0 2600.000000 2600.000000"
 preserveAspectRatio="xMidYMid meet">
<metadata>
Created by potrace 1.15, written by Peter Selinger 2001-2017
</metadata>
<g transform="translate(0.000000,2600.000000) scale(0.100000,-0.100000)"
fill="#000000" stroke="none">
<path d="M4892 14247 l-1682 -1682 0 -3413 0 -3412 9840 0 9840 0 0 1580 0
1580 247 0 248 0 -1935 1935 -1935 1935 -1580 0 -1580 0 -1580 1580 -1580
1580 -3310 0 -3310 0 -1683 -1683z m4638 -4884 l0 -2913 -1890 0 -1890 0 0
875 0 875 -455 0 -455 0 0 -875 0 -875 -465 0 -465 0 0 2907 0 2908 1407 1407
1408 1408 1402 -1402 1403 -1403 0 -2912z m3160 -108 l0 -2805 -1225 0 -1225
0 0 2805 0 2805 1225 0 1225 0 0 -2805z m3170 -1477 l0 -1328 -1230 0 -1230 0
0 2557 0 2558 1230 -1230 1230 -1230 0 -1327z m6320 -103 l0 -1225 -365 0
-365 0 0 875 0 875 -455 0 -455 0 0 -875 0 -875 -1990 0 -1990 0 0 1225 0
1225 2810 0 2810 0 0 -1225z"/>
<path d="M4847 11183 c-4 -3 -7 -474 -7 -1045 l0 -1038 775 0 775 0 -2 1043
-3 1042 -766 3 c-421 1 -769 -1 -772 -5z"/>
<path d="M7000 10145 l0 -1045 770 0 770 0 0 1045 0 1045 -770 0 -770 0 0
-1045z"/>
<path d="M11030 10145 l0 -1045 455 0 455 0 -2 1043 -3 1042 -452 3 -453 2 0
-1045z"/>
</g>
</svg>
